inDegrees=yes
name=ik_S54_A13_T02
DataType=double
version=3
OpenSimVersion=4.3-2021-08-27-4bc7ad9
endheader
time	pelvis_tilt	pelvis_list	pelvis_rotation	pelvis_tx	pelvis_ty	pelvis_tz	hip_flexion_r	hip_adduction_r	hip_rotation_r	knee_angle_r	knee_angle_r_beta	ankle_angle_r	subtalar_angle_r	mtp_angle_r	hip_flexion_l	hip_adduction_l	hip_rotation_l	knee_angle_l	knee_angle_l_beta	ankle_angle_l	subtalar_angle_l	mtp_angle_l	lumbar_extension	lumbar_bending	lumbar_rotation	arm_flex_r	arm_add_r	arm_rot_r	elbow_flex_r	pro_sup_r	wrist_flex_r	wrist_dev_r	arm_flex_l	arm_add_l	arm_rot_l	elbow_flex_l	pro_sup_l	wrist_flex_l	wrist_dev_l
5.799999999999964	2.088067186571244	2.689114213932429	19.99836150333589	0	0.9399999999999999	0	28.64430701153018	-9.090880086485784	-8.22894147182221	34.0331580802882	0.5939906633527416	0	0	0	28.64430701153018	-9.090880086485784	-8.22894147182221	34.0331580802882	0.5939906633527416	0	0	0	3.331155977298722	0.8279312292990396	2.927631323959126	82.45759695914602	-17.82583552367392	11.28195433786101	90.34605257066106	79.73978081977053	0	0	88.31547426538967	-44.35990315340675	51.61830085273094	39.2615708999686	87.77558069359033	0	0
5.819999999999964	2.078262874946934	2.689614140216936	19.81368867483408	0	0.9399999999999999	0	28.65568658947616	-9.092975993880435	-8.231567423439458	34.0435790370183	0.5941725433588899	0	0	0	28.65568658947616	-9.092975993880435	-8.231567423439458	34.0435790370183	0.5941725433588899	0	0	0	3.313925077633402	0.847418742868738	3.113389525337211	81.7830610546675	-18.92917103925665	10.68011739025469	92.48650598063141	78.39214482997852	0	0	88.09186912482815	-44.57093992870107	51.44752622961645	38.87283123272713	87.4278503900063	0	0
5.839999999999963	2.060174745351374	2.691261173579284	19.61074634791422	0	0.9399999999999999	0	28.66640202644901	-9.094955943805266	-8.234045829044902	34.05335029898621	0.5943430840523048	0	0	0	28.66640202644901	-9.094955943805266	-8.234045829044902	34.05335029898621	0.5943430840523048	0	0	0	3.289951265201428	0.8672448704768601	3.254928716953158	81.24746541920111	-19.99449894264853	9.848593842625281	94.5007024689184	76.9497225689139	0	0	88.10552627164006	-44.64218109020617	51.41922217595271	38.87812751403045	87.43673914237561	0	0
5.859999999999963	2.057072921538692	2.69553937259859	19.35496574840732	0	0.9399999999999999	0	28.67820873406277	-9.097119089185671	-8.236762568274317	34.06418885900558	0.5945322526108179	0	0	0	28.67820873406277	-9.097119089185671	-8.236762568274317	34.06418885900558	0.5945322526108179	0	0	0	3.278023398712213	0.8933589856566455	3.510070768170386	80.79182862529197	-21.19090806646659	8.902487661262768	96.53511909139016	74.77773114882784	0	0	87.7462476088003	-44.87316192924785	51.02138339771128	38.46845505710144	86.80659454139162	0	0
5.879999999999963	2.030614385692226	2.695680882475092	19.14465852944449	0	0.9399999999999999	0	28.68821298543109	-9.098955069044733	-8.239067715228785	34.07334494448942	0.5946920564491049	0	0	0	28.68821298543109	-9.098955069044733	-8.239067715228785	34.07334494448942	0.5946920564491049	0	0	0	3.242276642368506	0.9180666610810186	3.708014629167718	80.39233232456888	-22.34380489622541	7.780335790181979	98.56043876414262	71.85165150400623	0	0	87.76230868599535	-44.87188516201053	50.9652987959772	38.48576542526768	86.82526071287323	0	0
5.899999999999962	2.020315247588996	2.704500456043755	18.97248031000904	0	0.9399999999999999	0	28.70873332322784	-9.102696873579276	-8.243780219365275	34.09216772576338	0.5950205759567182	0	0	0	28.70873332322784	-9.102696873579276	-8.243780219365275	34.09216772576338	0.5950205759567182	0	0	0	3.227657976426442	0.9452012940990043	3.868674154469469	79.88189214944965	-23.60903157293963	6.390296079424245	100.7315817428769	68.51581447322292	0	0	87.54548299604713	-45.03131694785011	50.49501866818566	37.0724485848471	86.89784543575084	0	0
5.919999999999962	1.978250066847419	2.705816872797135	19.0851257541459	0	0.9399999999999999	0	28.71753310756509	-9.10429824830679	-8.245798392869878	34.10025661718008	0.595161753744776	0	0	0	28.71753310756509	-9.10429824830679	-8.245798392869878	34.10025661718008	0.595161753744776	0	0	0	3.194710302848704	0.9505878128645696	3.727585484862161	79.98963214208145	-23.6121718415848	6.238945641470358	101.3854112423208	66.82412195081535	0	0	87.59336370025095	-45.07667417878386	50.44969241849417	37.1015048339471	86.88871517536363	0	0
5.939999999999961	1.962083947014219	2.717764940215544	18.63165130807471	0	0.9399999999999999	0	28.73853057110581	-9.108123978988438	-8.250621632273647	34.11946025747274	0.5954969204962515	0	0	0	28.73853057110581	-9.108123978988438	-8.250621632273647	34.11946025747274	0.5954969204962515	0	0	0	3.173862658066923	0.9961973934157904	4.134727069738418	78.85062710311146	-25.91016901857535	3.402292056533947	104.7881663488072	62.76856762467963	0	0	87.11661980215429	-45.46454562023501	49.60713484478312	35.87135998715824	86.58037954047818	0	0
5.959999999999961	1.935576831839468	2.732063226344053	18.7586256325467	0	0.9399999999999999	0	28.74899444519104	-9.110022734534441	-8.253018738504895	34.12907165718122	0.5956646710668897	0	0	0	28.74899444519104	-9.110022734534441	-8.253018738504895	34.12907165718122	0.5956646710668897	0	0	0	3.161790250711618	1.006177527508012	3.950338161505537	78.92111732857816	-25.87338154244198	3.266268515528198	105.168137257916	60.6418550165203	0	0	87.11478240506308	-45.52083450813652	49.57008031916986	35.88895905472157	86.56883081948151	0	0
5.97999999999996	1.930219774877984	2.735037429024121	18.35006641899045	0	0.9399999999999999	0	28.76058260028116	-9.112135736720409	-8.255682226561888	34.13965631079579	0.595849408122647	0	0	0	28.76058260028116	-9.112135736720409	-8.255682226561888	34.13965631079579	0.595849408122647	0	0	0	3.142787010228435	1.040539490092892	4.349539081090525	77.99197654862169	-28.19445910847957	0.6577992170337136	107.8363016133062	57.91402279139817	0	0	86.75052247590365	-45.67569603714477	48.84196120706396	34.48519063560925	86.27941672959703	0	0
5.99999999999996	1.890130550039748	2.734147939898321	18.10577593417838	0	0.9399999999999999	0	28.77171597022397	-9.114146988483368	-8.258226712328163	34.14990038040374	0.5960282008661092	0	0	0	28.77171597022397	-9.114146988483368	-8.258226712328163	34.14990038040374	0.5960282008661092	0	0	0	3.10636474183371	1.062101825128297	4.458096197637945	77.51851081524323	-28.8854379258703	-0.433431022779116	109.0305136720032	53.9792350024924	0	0	86.79221623664317	-45.82043843943288	48.80229339205142	34.52128016937131	86.26503508347564	0	0
6.01999999999996	1.862561518657202	2.732368858598612	18.55480605461311	0	0.9399999999999999	0	28.78187143884463	-9.115987951437619	-8.260553459027916	34.15920255043652	0.5961905543607616	0	0	0	28.78187143884463	-9.115987951437619	-8.260553459027916	34.15920255043652	0.5961905543607616	0	0	0	3.102354212276984	1.042545901730721	3.971620628094767	77.57608947891477	-28.72010996671572	-0.612608193639342	108.3897513865134	47.7499415557775	0	0	86.6219964769911	-45.90292538724725	48.5075539979329	33.36660826209275	86.71591992875739	0	0
6.039999999999959	1.865571962637398	2.739808995229913	18.29864954806916	0	0.9399999999999999	0	28.794296326085	-9.118240127369097	-8.263400687364205	34.1705711162226	0.5963889732649582	0	0	0	28.794296326085	-9.118240127369097	-8.263400687364205	34.1705711162226	0.5963889732649582	0	0	0	3.105918729689749	1.059348768586379	4.162278179523536	76.48024113253103	-29.88710438467675	-2.656602411711443	109.7723380694201	44.47286054076969	0	0	86.39153019432537	-46.03442647886305	48.26395707893023	32.48407883585724	87.09257777042933	0	0
6.059999999999959	1.853621914972054	2.732769480354199	18.17619395318302	0	0.9399999999999999	0	28.80310329102925	-9.119830675166893	-8.265414596157042	34.17864791735942	0.5965299400378247	0	0	0	28.80310329102925	-9.119830675166893	-8.265414596157042	34.17864791735942	0.5965299400378247	0	0	0	3.090547714489315	1.060553152084315	4.216991043045938	76.13153287486047	-30.30299098406817	-3.811828093913573	109.6608637985387	43.31951298802005	0	0	86.25559740564205	-46.34373618661841	47.90808585956529	32.43580671356435	87.5148982100059	0	0
